<svg width="14" height="13" viewBox="0 0 14 13" xmlns="http://www.w3.org/2000/svg" class="inline-DS-EntryPoint1-1"><path d="M2.49992 10C1.3033 10 0.333252 9.02993 0.333252 7.83333V2.16667C0.333252 0.970047 1.3033 0 2.49992 0H11.4999C12.6965 0 13.6666 0.970047 13.6666 2.16667V7.83333C13.6666 9.02993 12.6965 10 11.4999 10H7.67492L4.33237 12.5005C3.96382 12.7761 3.44159 12.7008 3.16593 12.3323C3.05816 12.1881 2.99992 12.0131 2.99992 11.8333L2.99939 10H2.49992ZM7.34225 9H11.4999C12.1443 9 12.6666 8.47767 12.6666 7.83333V2.16667C12.6666 1.52233 12.1443 1 11.4999 1H2.49992C1.85559 1 1.33325 1.52233 1.33325 2.16667V7.83333C1.33325 8.47767 1.85559 9 2.49992 9H3.99911L3.99925 9.49987L3.99983 11.5004L7.34225 9Z" fill="white" /></svg>
